<?xml version="1.0" encoding="UTF-8"?>
<svg id="Camada_1" data-name="Camada 1" xmlns="http://www.w3.org/2000/svg" xmlns:xlink="http://www.w3.org/1999/xlink" viewBox="0 0 450 264.67">
  <defs>
    <style>
      .cls-1 {
        fill: url(#Gradiente_sem_nome_7-3);
      }

      .cls-2 {
        fill: #fff;
      }

      .cls-3 {
        fill: url(#Gradiente_sem_nome_7);
      }

      .cls-4 {
        fill: url(#Gradiente_sem_nome_7-2);
      }
    </style>
    <linearGradient id="Gradiente_sem_nome_7" data-name="Gradiente sem nome 7" x1="54.81" y1="100.17" x2="144.61" y2="100.17" gradientUnits="userSpaceOnUse">
      <stop offset="0" stop-color="#fff"/>
      <stop offset=".14" stop-color="#fff" stop-opacity=".99"/>
      <stop offset=".26" stop-color="#fff" stop-opacity=".94"/>
      <stop offset=".39" stop-color="#fff" stop-opacity=".87"/>
      <stop offset=".51" stop-color="#fff" stop-opacity=".76"/>
      <stop offset=".63" stop-color="#fff" stop-opacity=".63"/>
      <stop offset=".74" stop-color="#fff" stop-opacity=".47"/>
      <stop offset=".86" stop-color="#fff" stop-opacity=".27"/>
      <stop offset=".97" stop-color="#fff" stop-opacity=".06"/>
      <stop offset="1" stop-color="#fff" stop-opacity="0"/>
    </linearGradient>
    <linearGradient id="Gradiente_sem_nome_7-2" data-name="Gradiente sem nome 7" x1="123.17" y1="102.19" x2="273.52" y2="102.19" xlink:href="#Gradiente_sem_nome_7"/>
    <linearGradient id="Gradiente_sem_nome_7-3" data-name="Gradiente sem nome 7" x1="235.26" x2="395.19" xlink:href="#Gradiente_sem_nome_7"/>
  </defs>
  <g>
    <path class="cls-2" d="m163.12,207.75c2.83,0,5.38.58,7.64,1.75s4.04,2.98,5.34,5.45,1.95,5.66,1.95,9.59v21.37h-15.48v-18.7c0-2.33-.39-3.98-1.16-4.97-.78-.98-1.78-1.47-3.01-1.47-.91,0-1.74.23-2.47.68-.73.46-1.31,1.18-1.75,2.16-.43.98-.65,2.32-.65,4.01v18.29h-15.48v-18.7c0-2.33-.37-3.98-1.1-4.97-.73-.98-1.76-1.47-3.08-1.47-.91,0-1.74.23-2.47.68-.73.46-1.31,1.18-1.75,2.16-.43.98-.65,2.32-.65,4.01v18.29h-15.48v-37.46h14.73v10.75l-3.01-3.01c1.41-2.83,3.31-4.94,5.68-6.33,2.37-1.39,5.02-2.09,7.94-2.09,3.29,0,6.2.86,8.73,2.57,2.53,1.71,4.23,4.42,5.1,8.12l-4.73-.75c1.37-3.1,3.37-5.54,5.99-7.29,2.62-1.76,5.67-2.64,9.14-2.64Z"/>
    <path class="cls-2" d="m212.98,246.59c-4.57,0-8.55-.84-11.95-2.53-3.4-1.69-6.04-4.01-7.91-6.95-1.87-2.95-2.81-6.27-2.81-9.97s.92-7.14,2.77-10.07c1.85-2.92,4.38-5.21,7.6-6.85,3.22-1.64,6.84-2.47,10.86-2.47,3.7,0,7.11.73,10.24,2.19,3.13,1.46,5.64,3.63,7.53,6.51,1.89,2.88,2.84,6.44,2.84,10.68,0,.55-.02,1.15-.07,1.82-.05.66-.09,1.27-.14,1.82h-28.83v-7.47h20.62l-5.82,1.99c0-1.46-.26-2.71-.79-3.73-.53-1.03-1.24-1.83-2.16-2.4-.91-.57-2.01-.86-3.29-.86s-2.39.29-3.32.86c-.94.57-1.66,1.37-2.16,2.4-.5,1.03-.75,2.27-.75,3.73v2.33c0,1.6.32,2.97.96,4.11.64,1.14,1.55,2,2.74,2.57,1.19.57,2.62.86,4.31.86s3.16-.23,4.28-.68c1.12-.46,2.29-1.14,3.53-2.05l8.08,8.15c-1.83,1.96-4.08,3.46-6.75,4.49-2.67,1.03-5.88,1.54-9.62,1.54Z"/>
    <path class="cls-2" d="m259.9,243.85c-3.15,0-6.1-.74-8.84-2.23-2.74-1.48-4.95-3.57-6.64-6.27-1.69-2.69-2.53-5.89-2.53-9.59s.84-6.89,2.53-9.59c1.69-2.69,3.9-4.77,6.64-6.23,2.74-1.46,5.68-2.19,8.84-2.19s5.9.64,7.98,1.92c2.08,1.28,3.62,3.25,4.62,5.92,1,2.67,1.51,6.06,1.51,10.17s-.5,7.5-1.51,10.17c-1,2.67-2.55,4.66-4.62,5.96-2.08,1.3-4.74,1.95-7.98,1.95Zm3.01,16.03c-3.7,0-7.17-.39-10.41-1.16-3.24-.78-6.03-1.94-8.36-3.49l5.21-10.55c1.46,1.14,3.32,2.04,5.58,2.71,2.26.66,4.39.99,6.4.99,3.2,0,5.48-.67,6.85-2.02,1.37-1.35,2.05-3.28,2.05-5.79v-3.15l.69-11.64.07-11.64v-5.68h14.73v30c0,7.26-2.01,12.65-6.03,16.16-4.02,3.52-9.61,5.27-16.78,5.27Zm1.1-28.08c1.23,0,2.33-.25,3.29-.75.96-.5,1.71-1.21,2.26-2.12.55-.91.82-1.96.82-3.15s-.27-2.29-.82-3.18c-.55-.89-1.3-1.58-2.26-2.05-.96-.48-2.05-.72-3.29-.72s-2.27.24-3.25.72c-.98.48-1.76,1.16-2.33,2.05-.57.89-.86,1.95-.86,3.18s.28,2.24.86,3.15c.57.91,1.35,1.62,2.33,2.12.98.5,2.07.75,3.25.75Z"/>
    <path class="cls-2" d="m311.47,246.59c-3.06,0-5.62-.53-7.67-1.58s-3.61-2.45-4.66-4.21c-1.05-1.76-1.58-3.71-1.58-5.86,0-2.42.62-4.47,1.85-6.16,1.23-1.69,3.12-2.97,5.65-3.84,2.53-.87,5.74-1.3,9.62-1.3h7.81v7.46h-5.34c-1.64,0-2.84.26-3.6.79-.75.53-1.13,1.31-1.13,2.36,0,.87.33,1.59.99,2.16.66.57,1.56.86,2.71.86,1.05,0,2.02-.28,2.91-.86.89-.57,1.54-1.47,1.95-2.71l1.99,4.59c-.59,2.79-1.85,4.86-3.77,6.23-1.92,1.37-4.5,2.05-7.74,2.05Zm10.62-.68v-6.64l-1.1-1.78v-12.6c0-1.83-.56-3.22-1.68-4.18-1.12-.96-2.93-1.44-5.44-1.44-1.69,0-3.4.26-5.14.79-1.74.53-3.22,1.24-4.45,2.16l-4.93-10.21c2.19-1.37,4.82-2.42,7.88-3.15,3.06-.73,6.05-1.1,8.97-1.1,6.44,0,11.43,1.44,14.96,4.31,3.54,2.88,5.31,7.44,5.31,13.7v20.14h-14.38Z"/>
  </g>
  <g>
    <path class="cls-3" d="m85.08,188.46V32.56l25.48,24.22h-55.75V11.88h89.81v176.58h-59.53Z"/>
    <path class="cls-4" d="m192.8,192.5c-12.11,0-24.39-1.35-36.83-4.04-12.45-2.69-23.38-6.64-32.79-11.86l20.18-43.89c7.57,4.38,15.47,7.61,23.71,9.71,8.24,2.1,16.06,3.15,23.46,3.15,6.72,0,12.27-1.17,16.65-3.53,4.37-2.35,6.56-5.8,6.56-10.34,0-2.52-.76-4.75-2.27-6.69-1.51-1.93-4.16-3.41-7.95-4.41-3.78-1.01-9.29-1.51-16.52-1.51h-51.21l8.83-107.21h117.3v44.9h-96.36l30.02-25.48-5.3,68.36-30.02-25.48h41.12c17.49,0,31.49,2.52,42,7.57,10.51,5.05,18.16,11.82,22.96,20.31,4.79,8.49,7.19,17.95,7.19,28.38s-2.82,20.39-8.45,29.89c-5.64,9.5-14.38,17.24-26.24,23.21-11.86,5.97-27.2,8.96-46.04,8.96Z"/>
    <path class="cls-1" d="m315.23,192.5c-15.64,0-29.48-3.62-41.5-10.85-12.03-7.23-21.44-17.74-28.25-31.53-6.81-13.79-10.22-30.44-10.22-49.95s3.41-36.16,10.22-49.95c6.81-13.79,16.23-24.3,28.25-31.53,12.02-7.23,25.86-10.85,41.5-10.85s29.47,3.62,41.5,10.85c12.02,7.23,21.44,17.75,28.25,31.53,6.81,13.79,10.22,30.44,10.22,49.95s-3.41,36.16-10.22,49.95c-6.81,13.79-16.23,24.3-28.25,31.53-12.03,7.23-25.86,10.85-41.5,10.85Zm0-47.68c3.87,0,7.32-1.34,10.34-4.04,3.03-2.69,5.42-7.32,7.19-13.87,1.77-6.56,2.65-15.47,2.65-26.74s-.88-20.39-2.65-26.87c-1.77-6.47-4.16-11.06-7.19-13.75-3.03-2.69-6.48-4.04-10.34-4.04s-7.32,1.35-10.34,4.04c-3.03,2.69-5.42,7.28-7.19,13.75-1.77,6.48-2.65,15.43-2.65,26.87s.88,20.18,2.65,26.74c1.77,6.56,4.16,11.19,7.19,13.87,3.03,2.69,6.47,4.04,10.34,4.04Z"/>
  </g>
</svg>